<svg width="19" height="19" viewBox="0 0 19 19" fill="none" xmlns="http://www.w3.org/2000/svg">
<path d="M0.53299 8.82322L4.01346 5.94322C4.14236 5.84956 4.31229 5.82029 4.52322 5.85541C4.73416 5.89053 4.83963 5.96663 4.83963 6.0837V8.08566H8.23221V4.71395H6.2283C6.11111 4.71395 6.03201 4.60858 5.991 4.39785C5.94998 4.18712 5.98221 4.01736 6.08768 3.88858L8.97049 0.411509C9.07596 0.282728 9.20193 0.218338 9.34842 0.218338C9.4949 0.218338 9.62088 0.282728 9.72635 0.411509L12.6092 3.88858C12.7146 4.01736 12.7469 4.18712 12.7058 4.39785C12.6648 4.60858 12.5916 4.71395 12.4861 4.71395H10.4822V8.08566H13.8396V6.0837C13.8396 5.97834 13.9451 5.90517 14.156 5.86419C14.367 5.82322 14.5369 5.84956 14.6658 5.94322L18.1463 8.84078C18.2752 8.94614 18.3396 9.072 18.3396 9.21834C18.3396 9.36468 18.2752 9.49053 18.1463 9.5959L14.6658 12.4759C14.5369 12.5813 14.367 12.6135 14.156 12.5725C13.9451 12.5315 13.8396 12.4583 13.8396 12.353V10.3335H10.4822V13.7227H12.4685C12.5857 13.7227 12.6648 13.8281 12.7058 14.0388C12.7469 14.2496 12.7146 14.4193 12.6092 14.5481L9.72635 18.0076C9.62088 18.1481 9.4949 18.2183 9.34842 18.2183C9.20193 18.2183 9.07596 18.1481 8.97049 18.0076L6.08768 14.5481C5.98221 14.4193 5.94998 14.2496 5.991 14.0388C6.03201 13.8281 6.10526 13.7227 6.21072 13.7227H8.23221V10.3335H4.83963V12.3354C4.83963 12.4525 4.73416 12.5315 4.52322 12.5725C4.31229 12.6135 4.14236 12.5813 4.01346 12.4759L0.53299 9.5959C0.404083 9.49053 0.33963 9.36175 0.33963 9.20956C0.33963 9.05736 0.404083 8.92858 0.53299 8.82322Z" fill="black"/>
</svg>
