<svg width="21" height="21" viewBox="0 0 21 21" fill="none" xmlns="http://www.w3.org/2000/svg">
<path d="M14.5071 9.95278L14.5071 6.71528C14.5072 6.37315 14.4021 6.03929 14.2059 5.75901C14.0097 5.47873 13.732 5.26562 13.4105 5.14861L4.79214 2.01528C4.48797 1.90444 4.14714 1.98028 3.91797 2.20861L3.67381 2.45278L9.02547 7.80444C9.04714 7.80361 9.06881 7.79778 9.09047 7.79778C9.3377 7.79778 9.57938 7.87109 9.78494 8.00844C9.9905 8.14579 10.1507 8.34102 10.2453 8.56942C10.3399 8.79783 10.3647 9.04916 10.3165 9.29164C10.2682 9.53412 10.1492 9.75684 9.97436 9.93166C9.79954 10.1065 9.57681 10.2255 9.33434 10.2738C9.09186 10.322 8.84053 10.2972 8.61212 10.2026C8.38371 10.108 8.18849 9.9478 8.05114 9.74224C7.91378 9.53668 7.84047 9.295 7.84047 9.04778C7.84047 9.02611 7.84631 9.00444 7.84714 8.98278L2.49547 3.63111L2.25131 3.87528C2.13898 3.98732 2.06108 4.12918 2.02682 4.28409C1.99256 4.439 2.00337 4.60048 2.05797 4.74944L5.19214 13.3678C5.30915 13.6893 5.52226 13.967 5.80254 14.1632C6.08281 14.3594 6.41668 14.4645 6.75881 14.4644L9.99631 14.4644L11.6613 16.1303L16.173 11.6186L14.5071 9.95278Z" fill="black"/>
<path d="M12.7888 16.9136L16.9555 12.7469L18.723 14.5136L14.5563 18.6803L12.7888 16.9136Z" fill="black"/>
</svg>
